# xmcd
#
# Track frame offsets: 
#        150
#        26291
#        72787
#        91038
#        108942
#        130887
#        151948
#        168753
#        182444
#        197138
#        214062
#        232371
#        258380
#        279019
#        300988
#
# Disc length: 4330 seconds
#
# Revision: 0
# Processed by: cddbd v1.5.2PL0 Copyright (c) Steve Scherf et al.
# Submitted via: ExactAudioCopy v0.95b1
#
DISCID=b810e80f
DTITLE=Various Artist - Blues, Blues &... Blues vol.2
DYEAR=2005
DGENRE=Blues
TTITLE0=John Hammond - The Same Thing
TTITLE1=Mick Taylor - You Shook Me
TTITLE2=Paul Rodgers - I Just Want To Make Love To You
TTITLE3=John Mayall And The Bluesbreakers - Kids Got The Blues
TTITLE4=Clem Clempson - I've Got News For You
TTITLE5=Jimmy Thackery, Tab Benoit - Strange Things Happen
TTITLE6=Bernard Allison - Fistful Of Dirt
TTITLE7=C.J. Chenier And The Red Hot Louisian - Man Smart, Woman Smart
TTITLE7=er
TTITLE8=Charlie Musselwhite -  Leaving Your Town
TTITLE9=Dave Hole - Keep Your Motor Running
TTITLE10=Lil' Ed And The Blues Imperials - You Don't Exist Any More
TTITLE11=Alvin Lee - I Don't Give A Damn
TTITLE12=Albert Collins - Brick
TTITLE13=Steady Rollin' Bob Margolin - Blues Lover
TTITLE14=Little Charie and The Nightcats - Rain
EXTD=
EXTT0=
EXTT1=
EXTT2=
EXTT3=
EXTT4=
EXTT5=
EXTT6=
EXTT7=
EXTT8=
EXTT9=
EXTT10=
EXTT11=
EXTT12=
EXTT13=
EXTT14=
PLAYORDER=
